<?xml version="1.0" standalone="no"?>
<!DOCTYPE svg PUBLIC "-//W3C//DTD SVG 20010904//EN"
 "http://www.w3.org/TR/2001/REC-SVG-20010904/DTD/svg10.dtd">
<svg version="1.0" xmlns="http://www.w3.org/2000/svg"
 width="512.000000pt" height="512.000000pt" viewBox="0 0 512.000000 512.000000"
 preserveAspectRatio="xMidYMid meet">

<g transform="translate(0.000000,512.000000) scale(0.100000,-0.100000)"
fill="#000000" stroke="none">
<path d="M880 4924 c-272 -107 -582 -229 -688 -270 l-192 -76 0 -2018 0 -2018
103 -41 c56 -22 367 -143 691 -270 l590 -231 588 230 589 231 589 -231 588
-230 679 266 c373 146 684 268 690 271 19 8 19 4038 1 4046 -7 3 -318 125
-691 271 l-679 266 -588 -230 -589 -230 -578 226 c-318 124 -585 228 -593 230
-8 1 -238 -85 -510 -192z m1060 -242 c294 -115 554 -218 578 -227 l42 -17 0
-833 0 -832 -590 231 -590 231 0 834 c0 662 3 832 13 828 6 -3 253 -99 547
-215z m2425 -28 l540 -211 3 -832 c1 -457 -1 -831 -5 -831 -3 0 -266 102 -585
226 l-578 227 0 833 0 834 43 -17 c23 -10 285 -112 582 -229z m-2404 -1866
c313 -123 569 -225 569 -228 0 -4 -1021 -406 -1132 -446 -17 -6 -1158 434
-1158 446 0 7 1118 448 1138 449 8 1 270 -99 583 -221z m2352 1 c312 -122 567
-225 567 -229 0 -4 -257 -107 -571 -230 l-570 -223 -287 112 c-158 62 -416
163 -574 224 -158 62 -288 114 -288 117 0 5 1128 449 1145 450 6 0 265 -99
578 -221z m-1075 -706 l502 -196 0 -833 0 -834 -52 21 c-29 11 -289 113 -578
226 -289 113 -531 208 -537 210 -10 4 -13 181 -13 838 l0 834 88 -35 c48 -19
313 -123 590 -231z m-2447 36 c310 -122 570 -223 577 -226 9 -4 12 -181 12
-838 l0 -832 -407 159 c-225 87 -487 190 -583 228 l-175 68 -3 831 c-1 480 2
831 7 831 5 0 262 -99 572 -221z"/>
</g>
</svg>
